<svg xmlns="http://www.w3.org/2000/svg" width="905.333" height="905.333" preserveAspectRatio="xMidYMid meet" version="1.0" viewBox="0 0 679 679"><metadata>Created by potrace 1.14, written by Peter Selinger 2001-2017</metadata><g fill="#000" stroke="none"><path d="M3125 5754 c-44 -7 -98 -20 -119 -29 -118 -50 -235 -111 -320 -164 -53 -33 -203 -115 -333 -182 -131 -67 -323 -165 -428 -219 -104 -54 -298 -153 -430 -220 -399 -204 -700 -358 -890 -455 -99 -51 -245 -125 -325 -165 -80 -40 -152 -79 -160 -86 -14 -11 -16 -45 -14 -231 1 -120 5 -245 8 -278 11 -100 17 -147 26 -220 15 -117 21 -203 25 -350 2 -77 4 -143 4 -147 1 -5 21 -8 44 -8 29 0 65 -11 105 -31 60 -30 91 -61 164 -167 23 -33 37 -41 100 -60 164 -47 293 -79 443 -108 11 -2 54 -10 95 -19 41 -8 86 -16 100 -19 14 -2 59 -11 100 -20 76 -16 134 -26 400 -72 80 -14 156 -27 170 -29 94 -17 127 -20 228 -18 63 1 128 7 145 13 131 50 221 113 303 212 79 97 130 128 209 128 119 0 218 -83 370 -310 84 -126 108 -154 179 -210 193 -154 207 -162 277 -174 19 -3 45 -8 59 -11 14 -3 41 -8 60 -11 19 -4 42 -10 51 -15 9 -4 31 -11 50 -14 19 -3 42 -8 51 -11 9 -3 25 -7 35 -9 10 -2 52 -11 93 -20 41 -9 84 -18 95 -21 115 -24 162 -36 270 -69 90 -27 247 -66 360 -90 11 -2 72 -16 135 -30 63 -15 123 -28 133 -30 9 -2 80 -20 158 -39 77 -20 148 -36 159 -36 10 0 49 29 87 65 l68 66 75 -7 c41 -3 86 -12 100 -19 41 -21 117 -17 145 8 25 23 31 42 41 136 3 30 14 91 24 135 11 45 21 92 24 106 2 14 20 102 40 195 20 94 42 213 51 265 17 106 22 139 31 190 3 19 8 46 10 60 2 14 7 41 10 60 3 19 8 46 10 60 3 14 15 86 29 160 13 74 26 149 29 165 5 31 19 116 21 125 1 3 5 32 9 65 8 59 11 76 21 125 3 14 8 43 11 65 6 44 50 305 58 345 7 37 26 141 31 175 27 168 38 207 61 217 19 9 28 8 43 -6 17 -15 18 -31 17 -144 -2 -152 7 -182 57 -182 26 0 37 7 52 33 18 29 20 50 19 202 0 169 -3 198 -29 370 -8 50 -17 126 -20 170 -8 107 -12 137 -32 223 -14 60 -22 76 -43 87 -29 15 -64 5 -74 -20 -8 -21 -49 -204 -71 -315 -43 -215 -338 -1253 -435 -1530 -22 -61 -42 -136 -45 -166 -5 -58 -23 -102 -50 -124 -19 -16 -114 -17 -142 -2 -10 6 -56 13 -103 16 -124 10 -156 15 -245 38 -44 11 -87 21 -95 22 -31 4 -70 18 -70 25 0 12 -92 37 -275 76 -93 20 -201 43 -240 52 -38 8 -81 17 -95 19 -14 3 -32 7 -40 9 -8 3 -33 7 -54 11 -22 3 -49 10 -62 14 -12 5 -41 12 -65 15 -24 4 -46 8 -50 10 -3 2 -21 7 -40 10 -19 3 -83 17 -144 30 -443 97 -630 136 -695 145 -80 10 -126 18 -150 25 -8 2 -29 7 -46 10 -17 2 -102 18 -189 35 -87 17 -172 33 -189 36 -17 3 -87 16 -156 29 -69 13 -138 26 -153 29 -15 3 -87 16 -160 30 -162 31 -179 34 -242 46 -113 21 -186 35 -265 51 -25 5 -61 11 -80 14 -19 3 -42 8 -50 10 -8 2 -26 6 -40 8 -38 7 -114 21 -122 23 -5 1 -16 2 -26 3 -22 1 -23 33 -1 59 8 10 26 35 40 57 14 22 62 77 107 121 44 45 106 113 138 150 143 168 246 250 439 347 72 36 166 84 210 106 205 104 579 267 687 299 65 19 67 19 97 1 17 -10 31 -20 31 -22 0 -2 15 -46 34 -98 42 -119 71 -168 122 -211 53 -44 109 -49 214 -16 99 30 163 91 204 193 26 66 27 75 22 185 -14 270 -33 324 -175 498 l-74 90 -131 50 c-72 27 -138 49 -146 49 -8 -1 -51 -6 -95 -13z" transform="translate(0.000000,679.000000) scale(0.100000,-0.100000)"/></g></svg>