<svg xmlns="http://www.w3.org/2000/svg" viewBox="0 0 512 512"><g fill="none" stroke="#fbc291" stroke-width="2"><path d="M440.27 438.24C440.21 235.92 276.08 71.39 73.21 71.35q-.44 0-.44.43v71.24a.5.5 0 0 0 .5.5c57.25.3 112.7 16.31 160.43 47.51q46.13 30.15 77.09 72.73 56.56 77.76 57.28 174.6a.41.41 0 0 0 .41.4h71.27q.52 0 .52-.52" vector-effect="non-scaling-stroke"/><path d="M317.22 438.27c-.33-134.86-109.97-244.53-245-244.67a.2.2 0 0 0-.2.2v71.46a.71.71 0 0 0 .71.71c66.53.44 126.6 38.56 155.42 98.59q13.27 27.64 15.81 55.95.36 3.97 1.02 17.75.02.5.53.5h71.22q.49 0 .49-.49" vector-effect="non-scaling-stroke"/><path d="M175.08 389.01a51.68 51.68 0 0 0-51.68-51.68 51.68 51.68 0 0 0-51.68 51.68 51.68 51.68 0 0 0 51.68 51.68 51.68 51.68 0 0 0 51.68-51.68" vector-effect="non-scaling-stroke"/></g><path fill="#f78422" d="M0 0h512v512H0V0Zm440.27 438.24C440.21 235.92 276.08 71.39 73.21 71.35q-.44 0-.44.43v71.24a.5.5 0 0 0 .5.5c57.25.3 112.7 16.31 160.43 47.51q46.13 30.15 77.09 72.73 56.56 77.76 57.28 174.6a.41.41 0 0 0 .41.4h71.27q.52 0 .52-.52Zm-123.05.03c-.33-134.86-109.97-244.53-245-244.67a.2.2 0 0 0-.2.2v71.46a.71.71 0 0 0 .71.71c66.53.44 126.6 38.56 155.42 98.59q13.27 27.64 15.81 55.95.36 3.97 1.02 17.75.02.5.53.5h71.22q.49 0 .49-.49Zm-142.14-49.26a51.68 51.68 0 0 0-51.68-51.68 51.68 51.68 0 0 0-51.68 51.68 51.68 51.68 0 0 0 51.68 51.68 51.68 51.68 0 0 0 51.68-51.68Z"/><path fill="#fff" d="M73.21 71.35c202.87.04 367 164.57 367.06 366.89q0 .52-.52.52h-71.27a.41.41 0 0 1-.41-.4q-.72-96.84-57.28-174.6-30.96-42.58-77.09-72.73c-47.73-31.2-103.18-47.21-160.43-47.51a.5.5 0 0 1-.5-.5V71.78q0-.43.44-.43Z"/><path fill="#fff" d="M72.22 193.6c135.03.14 244.67 109.81 245 244.67q0 .49-.49.49h-71.22q-.51 0-.53-.5-.66-13.78-1.02-17.75-2.54-28.31-15.81-55.95c-28.82-60.03-88.89-98.15-155.42-98.59a.71.71 0 0 1-.71-.71V193.8a.2.2 0 0 1 .2-.2Z"/><circle cx="123.4" cy="389.01" r="51.68" fill="#fff"/></svg>