<svg xmlns="http://www.w3.org/2000/svg" viewBox="0 0 679 679"><g fill="none" stroke-width="2"><path stroke="#a7a39b" d="M324.71 102.42q-2.21.9-4.94 1.13-2.71.23-4.94.78c-3.87.96-7.93.94-11.91 2.06-3.69 1.04-7.68 3.34-11.37 5.19-2.13 1.07-4.99 1.87-7.33 3.21-4.64 2.66-8.78 5.1-13.19 7.58-2.15 1.21-3.68 3.72-6.12 4.08a1.84 1.82-68 0 0-.88.38q-4.54 3.56-10.01 5" vector-effect="non-scaling-stroke"/><path stroke="#9d9891" d="M353.04 116.57q-2.26-.75-4.45-2.38-2.39-1.78-4.24-2.49-7.82-3.01-15.48-6.42c-2.39-1.07-5.7-1.48-7.87-1.09q-7.54 1.32-15.1 2.54c-5.19.83-9.16 3.01-13.66 5.37-2.96 1.55-7.09 2.68-10.32 4.99-.98.71-2.11.79-2.94 1.35q-3.86 2.63-7.93 4.95c-1.56.89-2.68 2.42-4.43 3.29q-2.72 1.36-3.53 1.92c-4.01 2.8-8.55 3.66-12.29 6.18q-.74.5-1.64.89c-2.55 1.08-4.61 2.65-7.1 3.77-2.42 1.07-4.4 2.75-6.85 3.92q-6.94 3.31-13.87 6.65c-2.95 1.42-7.72 4.71-12.36 5.96q-.43.12-1.02.94a2.02 1.91 3.2 0 1-.72.61q-5.78 2.79-11.64 5.38c-2.15.96-4.17 2.89-7.08 3.39a1.48 1.44-70.4 0 0-.77.38c-1.57 1.48-3.77 2.11-5.16 3.01-1.47.94-2.55 1.8-4.29 2.41-3.12 1.09-5.83 3.35-8.36 4.51q-3.08 1.42-6.23 2.73-.49.21-.81.64-1.27 1.7-3.4 1.74a1.14 1.11-63.1 0 0-.62.21c-4.54 3.19-10.25 5.95-14.17 8.28-4.89 2.91-8.29 4.41-12.08 6.82-4.02 2.56-7.92 3.93-11.64 5.89-.78.41-1.21 1.28-2.08 1.68q-5.28 2.45-20.67 10.38-.87.45-4.4 1.32a1.57 1.56 13.1 0 0-.83.51c-2.93 3.42-7.57 3.93-11.36 6.24q-4.86 2.96-6.62 3.77-5.29 2.42-10.58 4.83c-2.97 1.34-5.68 3.23-8.52 4.91-1.34.8-2.95 1.21-4.42 1.98-3.61 1.9-7.39 3.25-11 5.18-5.61 3.01-10.57 5.15-15.78 7.91-3.82 2.03-8.13 3.65-12.16 5.74a1.44 1.44 0 0 0-.78 1.37l.3 5.68" vector-effect="non-scaling-stroke"/><path stroke="#a7a39b" d="M12.09 264.41q-.37 2.04-.34 4.34.15 12.88.33 25.75.05 3.77 1.15 9.29.26 1.32-.07 2.93c-.56 2.7.5 8.33 1.24 11.06 1.69 6.34 1.08 13.2 1.88 19.67q.41 3.39.68 6.8c.11 1.46.91 3.09.94 4.86q.29 13.2.43 26.4a1.51 1.5-88.1 0 0 1.38 1.48q6.38.54 12.41 3.14c8.92 3.84 13.18 12.21 18.9 19.41.91 1.14 1.44 2.28 2.96 2.69 31 8.53 64.12 14.55 96.32 20.93 9.05 1.79 18.21 3.05 27.3 4.81q2.86.55 7.86 1.01c4.77.44 9.45 2.13 13.85 2.56q3.3.32 6.61.58c1.58.13 3.58 1.07 5.33.74 4.69-.89 9.6-1.32 14.19-2.5 3.28-.85 6.25-1.4 9.17-2.95 6.22-3.32 11.09-6.94 16.01-12.55q4.41-5.02 8.8-10.07c1.46-1.67 3.42-2.7 5.06-4.33 5.18-5.14 18.04-5.21 24.19-1.41 6.63 4.1 12.5 8.71 17.28 15.06 2.66 3.53 5.81 6.81 7.95 10.68q1.46 2.62 2.56 4.26c4.19 6.26 6.58 12.7 12.84 17.59q3.58 2.78 7.3 5.38 2.42 1.68 6.24 5.12c9.55 8.57 20.89 9.32 32.26 12.07q9.01 2.18 14.42 3.25 7.81 1.55 15.52 3.56 2.95.77 5.91 1.47c6.69 1.59 14.15 2.6 20.56 5.01 3.36 1.27 7.42 2.07 10.29 3.08q5.77 2.05 8.45 2.55c11.15 2.08 22.52 5.38 33.08 7.41 12.81 2.46 23.65 5.65 34.45 7.98 4.06.88 9.16 2.44 13.92 3.1q.5.07.86-.28l9.5-8.85" vector-effect="non-scaling-stroke"/><path stroke="#97948c" d="M542.06 497.49q.18-.28.95.88" vector-effect="non-scaling-stroke"/><path stroke="#a7a39b" d="M313.64 427.43q-1.36-5.4-6.11-8.78m-3.18-4.58q-.09-.89-1.99-2.96-2.82-3.07-4.83-3.77m-89.47 26.56q-3.12-1.91-7.84-.63m-5.94-1.11q-2.91-1.55-7.51-2.12-2.73-.34-3.47.54" vector-effect="non-scaling-stroke"/><path stroke="#97948c" d="M120.48 419.09q-1.07-1.27-3.17-.93-.52.08-.96-.2-1.83-1.17-4-.83-.49.08-.91-.19-1.79-1.11-3.91-1.02-.52.03-.98-.21-2.06-1.07-4.28-.41-.29.09-.56-.05-.22-.11-.38-.29-.3-.37-.77-.45c-2.67-.5-5.17-1.34-7.82-1.73q-5.6-.82-11-2.5-5.31-1.65-10.58-2.02" vector-effect="non-scaling-stroke"/><path stroke="#a7a39b" d="M14.38 332.08q.75-.79.59-2.84-.44-5.88-2.13-11.43" vector-effect="non-scaling-stroke"/><path stroke="#9d9891" d="m10.52 257.33 141.9-72.69q.41-.21.72-.55.59-.67.8-1.35m64.83-33.03q14.15-5.99 27.54-13.56.28-.15.3-.46.02-.21.11-.34m1.14-.45q1.89.38 2.74-1.44" vector-effect="non-scaling-stroke"/><path stroke="#7a789a" d="M38.52 269.09q7.22 2.04 14.46 3.4 11.92 2.22 12.01 2.24 51.62 10.65 103.46 20.21c1.2.22 3.06.85 4.59.65q1.05-.14.01-.34l-35.11-6.92" vector-effect="non-scaling-stroke"/><path stroke="#a7a39b" d="m216.6 302.5-9.03-.89q-.8-.08-.15.34c1.73 1.09 6.95 1.79 9.26 2.05 2.06.22 3.77 1.14 5.95 1.08q1.25-.04 2.24.13 19.61 3.41 39.11 7.38c3.92.8 9.42 1.68 14.07 2.76q5.7 1.32 9.94 1.97c4.82.73 10.09 1.31 14.73 2.8 4.15 1.33 7.88 2.04 11.92 2.82 4.36.84 9.46 2.69 14.43 3.36 10.88 1.48 21.43 4.96 32.28 6.17a.12.12 0 0 0 .05-.23q-14.78-4.6-30.28-6.62-5.02-.66-9.6-2.03-6.82-2.05-13.88-3.81m121.4 24.79q-4.71-.12-9.54-1.26-9.17-2.14-18.44-3.71a.57.57 0 0 0-.6.3l-.21.39q-.18.34.19.41l48 9.72" vector-effect="non-scaling-stroke"/><path stroke="#97948c" d="M636.29 156.58q-.14.28-.81.48-.66.2-.07.54 2.36 1.36 2.2 4.15a1.71 1.63-60.3 0 0 .24.97q1.05 1.74.74 3.76a1.1 1.06-55.1 0 0 .1.64c1.33 2.67 1.18 4.07 1.68 6.88.65 3.64.58 7.36 1.02 11.04q.36 2.95.38 7.47.03 6.39 1.94 12.51c.5 1.62.29 3.28.76 4.98.81 2.94.66 4.75.64 7.51q0 .1.08.18.09.1.21.19.24.19.27.5c.27 3.22 1.05 5.91 1.16 9.37.1 3.09 1.38 5.66 1.23 9.01q-.33 7.22.69 14.4m-19.5-19.81q.41-1.49 2.5-1.47.46 0 .85.26l2.87 1.92q.29.2.34-.15l.11-.67a.52.52 0 0 0-.24-.52c-6.76-4.18-10.8.73-11.08 7.19q-.02.5-.31.91-1.08 1.53-1.13 3.44-.2 7.75-2.22 15.23-.62 2.27-.92 10.75-.02.53-.39 1.05-.27.41-.36.89-1.24 6.8-2.22 13.64-.06.44-.59 2.29c-.51 1.82-.26 3.62-1.07 5.47-1.55 3.57-1.78 8.07-2.16 11.91q-.46 4.64-1.33 8.94c-1.86 9.18-2.91 18.59-4.57 27.83-.67 3.79-.03 7.54-1.01 11.23q-.1.35-.34.51-.36.24-.43.66c-.49 2.95-2.01 5.53-2.46 8.22-1.23 7.26-2.31 14.48-2.94 22.25-.21 2.62-1.64 4.44-1.84 6.89q-.45 5.39-1.24 10.69-.21 1.4.99 1.91" vector-effect="non-scaling-stroke"/><path stroke="#c1bdae" d="M542.06 497.49q3.1-3.92 8.15-4.5c1.81-.21 3.28.67 4.95 1.29 3.39 1.26 5.89-.49 9.34 1.46q2.33 1.32 4.89 1.15a1.16 1.16 0 0 0 .82-1.89c-1.59-1.94-2.13-3.67-2.2-6.34q-.85-30.23-.59-40.41.4-14.88.12-29.75c-.03-1.33.32-2.49.31-3.67q-.14-14.79-.51-29.58-.06-2.17.92-5.96a1.59 1.57 76.6 0 1 .48-.79q2.96-2.54 4.22-5.23 1.43-3.03-.88-.61c-2.51 2.63-6.61 3.84-10.38 2.91-1.66-.41-3.4-.29-4.88-.7q-1.95-.54-3.89-1.09c-3.24-.91-6.77-.77-10.13-1.35q-3.14-.55-6.15-.65-11.65-.42-24.38-4.95c-1.89-.67-4.26-.08-6.52-1.41-1.67-.97-2.71-1.84-4.62-2.43q-14.12-4.34-28.62-7.23-3.04-.61-6.06-1.27-9.01-1.98-18.01-4.07" vector-effect="non-scaling-stroke"/><path stroke="#97948c" d="m448.44 350.42.38-.01a.36.36 0 0 0 .06-.71q-8.51-1.9-17.14-3.96-.99-.24-.78-.74" vector-effect="non-scaling-stroke"/><path stroke="#c1bdae" d="M475.72 354.78q4.4 1.45 8.93 2.41 3.77.79 7.58 2.01c4.75 1.52 9.95 2.48 14.58 5.49 1.8 1.17 3.99.55 5.96 1.26q6.48 2.32 13.22 3.77c1.96.42 4.03.09 6.12.43 5.07.83 10.16 1.24 15.28 1.64q2.47.19 6.11 1.02 3.16.71 6.17.92m6.18-.03q-.18.8 1.74.05c6.85-2.65 6.19-9.16 7.03-15.12q.58-4.13 1.48-7.4 2.67-9.71 6.72-18.4" vector-effect="non-scaling-stroke"/><path stroke="#97948c" d="M582.82 332.83q2.77-4.01 4.15-9.32 2.48-9.56 3.82-15.22c.68-2.86 1.99-5.83 2.68-8.97q1.18-5.31 1.64-6.79c2.87-9.32 5.66-18.49 7.69-28.05q.13-.61-.62-1.45" vector-effect="non-scaling-stroke"/><path stroke="#9d9891" d="M366.22 133.26q.13 2.39 1.25 4.55c1.65 3.16 2.15 4.69 2.98 7.52.69 2.34 2.27 4.54 1.97 7.65q-.04.5.12.97.77 2.18.5 5.04-.13 1.37.98 2.24m.56 12.56c-.65 3.46-.41 6.93-1.35 10.12-1.09 3.66-2.1 6.79-4.37 10.07q-1.66 2.41-3.28 4.84c-3 4.5-6.08 5.57-10.29 7.38q-.48.21-.08.54.46.38 1.26.68m-15.68 3.37q2.36-1.24 5.47-1.07.12 0 .12-.12v-.26q0-.26-.26-.23c-3.25.33-7.4.66-10.49-.31-5.62-1.77-10.97-9.88-12.71-15.17q-1.76-5.36-3.01-10.87-.99-4.36-2.13-6.23c-2.35-3.87-7.42-6.89-11.8-5.41-4.59 1.54-9.35 2.57-13.67 4.4-13.61 5.79-27.31 11.35-40.49 18.07q-1.36.69-7.45 3.28c-4.13 1.75-7.86 4.3-11.84 6.03-8.92 3.89-16.89 9.13-25.62 12.91-4.08 1.76-7.58 3.34-11.29 6.03q-5.73 4.16-11.45 8.33c-4.99 3.64-8.54 8.36-12.71 12.68-4.76 4.93-8.58 10.91-13.59 15.28-3.54 3.08-6.44 7.03-9.69 10.45q-3.54 3.71-5.8 7.25-2.57 4.03-5.03 8.05" vector-effect="non-scaling-stroke"/><path stroke="#706d90" d="m137.35 283.88-1.23 3.21q-.33.85-1.23.67-33.63-6.6-65.27-13.1-21.04-4.32-31.1-5.57" vector-effect="non-scaling-stroke"/><path stroke="#c7c0b3" d="m38.52 269.09-26.43-4.68" vector-effect="non-scaling-stroke"/><path stroke="#9d9891" d="M325.43 202.2q.65-1.85-1.79-3.55" vector-effect="non-scaling-stroke"/><path stroke="#a7a39b" d="M321.37 194.54q.77.05.53-.8-2.16-7.61-3.33-12.34c-1.15-4.7-5.18-9.7-10.54-9.23q-3.72.33-5.98 1.83m-92.97 42.5q-2.77.19-5.49 1.57c-.66.33-1.3 1.15-2.25 1.3q-.43.07-.8.32-.56.37-1.45.88-3.68 2.11-8.26 5.71-1.84 1.44-3.72 2.83-2.01 1.48-3.56 3-8.49 8.3-16.47 17.09-1.25 1.37-2.57 3.25c-2.77 3.94-6.65 7.04-9.88 10.64-3.47 3.86-7.57 7.6-10.52 11.4q-1.56 2.01-2.13 4.82m-3.3 8.46q.22.53-.74.56" vector-effect="non-scaling-stroke"/><path stroke="#4f4f77" d="M137.94 288.33q-1.13-.05-1.3-1.08c-.17-1.03.74-2.08.71-3.37" vector-effect="non-scaling-stroke"/><path stroke="#a7a39b" d="M582.82 332.83c2.44-8.3 4.58-16.5 7.04-24.59q1.18-3.84 1.59-7.78" vector-effect="non-scaling-stroke"/><path stroke="#c1bdae" d="M631.7 155.91q-.91.95-1.66 1.86-.76.93-1.08 2.19c-1.13 4.43-1.69 8.72-3.08 13.24-1.16 3.77-1.7 8.28-2.47 11.51q-.71 2.95-1.36 5.92-.09.38-.47 4.33-.26 2.66-1.84 4.13" vector-effect="non-scaling-stroke"/><path stroke="#9d9891" d="M61.41 268.94q-.34-.09-.71-.04a.48.47-17.1 0 0-.37.69q.5.96 1.93.67.68-.14.85-.65a.36.36 0 0 0-.34-.48h-.52q-.07 0-.84-.19" vector-effect="non-scaling-stroke"/><path stroke="#7a789a" d="M64.24 366.29c3.51 9.58 12.38 19 23.04 21.34 15.64 3.42 31.05 6.79 47.06 9.61q29.31 5.16 58.6 10.49c7.11 1.3 12.79 1.75 18.09-2.45 6.44-5.11 6.53-11.84 5.83-19.02q-1.6-16.45-3.46-32.87c-1.86-16.42-13.26-27.9-29.57-30.52a6380.7 6380.7 0 0 1-41.06-6.72q-28.84-4.8-57.24-11.8c-7.94-1.96-16.42-2.21-21.8 5.1q-3.54 4.81-3.3 9.3.97 18.37 1.97 36.75.36 6.75 1.84 10.79" vector-effect="non-scaling-stroke"/><path stroke="#b46f65" d="M510.29 407.24c-4.48-12.38-15.22-19.86-27.73-22.57q-25.69-5.57-104.89-23.2-6.97-1.55-10.19-1.51c-7.74.09-15.61 4.4-17.75 12.09q-.83 2.96-.57 11.49.45 14.75.69 29.51.12 7.4 1.36 11.28c3.89 12.12 15.49 20.59 27.76 23.09q15.79 3.22 24.03 5.29 42 10.54 83.97 21.18c9.32 2.37 19.9.2 24.12-9.02 2.28-4.96 1.91-12.32 1.79-18.13q-.29-13.9-.82-27.8-.29-7.63-1.77-11.7" vector-effect="non-scaling-stroke"/></g><path fill="#d1cbbd" d="M324.71 102.42q-2.21.9-4.94 1.13-2.71.23-4.94.78c-3.87.96-7.93.94-11.91 2.06-3.69 1.04-7.68 3.34-11.37 5.19-2.13 1.07-4.99 1.87-7.33 3.21-4.64 2.66-8.78 5.1-13.19 7.58-2.15 1.21-3.68 3.72-6.12 4.08a1.84 1.82-68 0 0-.88.38q-4.54 3.56-10.01 5c10.19-6.09 20.06-12.98 30.72-18.01 7.34-3.47 14.39-7.07 22.12-9.47q4.56-1.41 17.85-1.93Z"/><path fill="#7c7a78" d="M324.71 102.42q12.63 5.07 25.04 10.02 1.21.48 3.29 4.13-2.26-.75-4.45-2.38-2.39-1.78-4.24-2.49-7.82-3.01-15.48-6.42c-2.39-1.07-5.7-1.48-7.87-1.09q-7.54 1.32-15.1 2.54c-5.19.83-9.16 3.01-13.66 5.37-2.96 1.55-7.09 2.68-10.32 4.99-.98.71-2.11.79-2.94 1.35q-3.86 2.63-7.93 4.95c-1.56.89-2.68 2.42-4.43 3.29q-2.72 1.36-3.53 1.92c-4.01 2.8-8.55 3.66-12.29 6.18q-.74.5-1.64.89c-2.55 1.08-4.61 2.65-7.1 3.77-2.42 1.07-4.4 2.75-6.85 3.92q-6.94 3.31-13.87 6.65c-2.95 1.42-7.72 4.71-12.36 5.96q-.43.12-1.02.94a2.02 1.91 3.2 0 1-.72.61q-5.78 2.79-11.64 5.38c-2.15.96-4.17 2.89-7.08 3.39a1.48 1.44-70.4 0 0-.77.38c-1.57 1.48-3.77 2.11-5.16 3.01-1.47.94-2.55 1.8-4.29 2.41-3.12 1.09-5.83 3.35-8.36 4.51q-3.08 1.42-6.23 2.73-.49.21-.81.64-1.27 1.7-3.4 1.74a1.14 1.11-63.1 0 0-.62.21c-4.54 3.19-10.25 5.95-14.17 8.28-4.89 2.91-8.29 4.41-12.08 6.82-4.02 2.56-7.92 3.93-11.64 5.89-.78.41-1.21 1.28-2.08 1.68q-5.28 2.45-20.67 10.38-.87.45-4.4 1.32a1.57 1.56 13.1 0 0-.83.51c-2.93 3.42-7.57 3.93-11.36 6.24q-4.86 2.96-6.62 3.77-5.29 2.42-10.58 4.83c-2.97 1.34-5.68 3.23-8.52 4.91-1.34.8-2.95 1.21-4.42 1.98-3.61 1.9-7.39 3.25-11 5.18-5.61 3.01-10.57 5.15-15.78 7.91-3.82 2.03-8.13 3.65-12.16 5.74a1.44 1.44 0 0 0-.78 1.37l.3 5.68q-.37 2.04-.34 4.34.15 12.88.33 25.75.05 3.77 1.15 9.29.26 1.32-.07 2.93c-.56 2.7.5 8.33 1.24 11.06 1.69 6.34 1.08 13.2 1.88 19.67q.41 3.39.68 6.8c.11 1.46.91 3.09.94 4.86q.29 13.2.43 26.4a1.51 1.5-88.1 0 0 1.38 1.48q6.38.54 12.41 3.14c8.92 3.84 13.18 12.21 18.9 19.41.91 1.14 1.44 2.28 2.96 2.69 31 8.53 64.12 14.55 96.32 20.93 9.05 1.79 18.21 3.05 27.3 4.81q2.86.55 7.86 1.01c4.77.44 9.45 2.13 13.85 2.56q3.3.32 6.61.58c1.58.13 3.58 1.07 5.33.74 4.69-.89 9.6-1.32 14.19-2.5 3.28-.85 6.25-1.4 9.17-2.95 6.22-3.32 11.09-6.94 16.01-12.55q4.41-5.02 8.8-10.07c1.46-1.67 3.42-2.7 5.06-4.33 5.18-5.14 18.04-5.21 24.19-1.41 6.63 4.1 12.5 8.71 17.28 15.06 2.66 3.53 5.81 6.81 7.95 10.68q1.46 2.62 2.56 4.26c4.19 6.26 6.58 12.7 12.84 17.59q3.58 2.78 7.3 5.38 2.42 1.68 6.24 5.12c9.55 8.57 20.89 9.32 32.26 12.07q9.01 2.18 14.42 3.25 7.81 1.55 15.52 3.56 2.95.77 5.91 1.47c6.69 1.59 14.15 2.6 20.56 5.01 3.36 1.27 7.42 2.07 10.29 3.08q5.77 2.05 8.45 2.55c11.15 2.08 22.52 5.38 33.08 7.41 12.81 2.46 23.65 5.65 34.45 7.98 4.06.88 9.16 2.44 13.92 3.1q.5.07.86-.28l9.5-8.85q.18-.28.95.88l-9.42 8.94a3.64 3.63 30.3 0 1-3.39.88c-26.85-6.79-53.83-12.82-80.82-19.04-10.11-2.33-19.79-6.36-29.98-8.53q-19.06-4.04-38.08-8.28c-2.49-.55-4.64-1.72-7.11-2.24q-7.46-1.55-14.94-2.94c-2.7-.5-6.85-1.4-9.01-3.1q-11.64-9.15-23.29-18.28-2.7-2.11-4.57-4.88-4.6-6.8-8.76-13.47-1.36-5.4-6.11-8.78l-3.18-4.58q-.09-.89-1.99-2.96-2.82-3.07-4.83-3.77c-3.48-2.89-6.36-6.1-11.02-8.01q-3.21-1.31-7.38-1.31c-3.41 0-7.36-.47-10.38 1.39-6.53 4.03-10.22 8.56-15.43 15.18q-2.35 2.99-5.3 5.17c-4.36 3.22-8.43 6.65-13.35 8.8-5.31 2.31-9.8 4.28-15.75 4.73q-5.61.42-10.86.61-3.12-1.91-7.84-.63l-5.94-1.11q-2.91-1.55-7.51-2.12-2.73-.34-3.47.54l-62.82-11.49q-1.07-1.27-3.17-.93-.52.08-.96-.2-1.83-1.17-4-.83-.49.08-.91-.19-1.79-1.11-3.91-1.02-.52.03-.98-.21-2.06-1.07-4.28-.41-.29.09-.56-.05-.22-.11-.38-.29-.3-.37-.77-.45c-2.67-.5-5.17-1.34-7.82-1.73q-5.6-.82-11-2.5-5.31-1.65-10.58-2.02-9.12-2.19-18.29-5.15c-1.14-.37-2.83-1.35-3.48-2.37Q42 389.05 37.78 385.21q-1.81-1.66-7.94-4.3c-4.14-1.79-8.11-1.74-12.56-2.14q-.51-.05-.52-.56-.39-13.62-.65-27.21c-.12-6.37-1.03-12.61-1.73-18.92q.75-.79.59-2.84-.44-5.88-2.13-11.43c-3.07-19.92-2.29-40.4-2.32-60.48l141.9-72.69q.41-.21.72-.55.59-.67.8-1.35l64.83-33.03q14.15-5.99 27.54-13.56.28-.15.3-.46.02-.21.11-.34.81-.6 1.14-.45 1.89.38 2.74-1.44 1.55-1.23 3.42-1.63 5.47-1.44 10.01-5a1.84 1.82-68 0 1 .88-.38c2.44-.36 3.97-2.87 6.12-4.08 4.41-2.48 8.55-4.92 13.19-7.58 2.34-1.34 5.2-2.14 7.33-3.21 3.69-1.85 7.68-4.15 11.37-5.19 3.98-1.12 8.04-1.1 11.91-2.06q2.23-.55 4.94-.78 2.73-.23 4.94-1.13Z"/><path fill="#bdb5a9" d="M353.04 116.57q7.27 7.91 13.18 16.69.13 2.39 1.25 4.55c1.65 3.16 2.15 4.69 2.98 7.52.69 2.34 2.27 4.54 1.97 7.65q-.04.5.12.97.77 2.18.5 5.04-.13 1.37.98 2.24l.56 12.56c-.65 3.46-.41 6.93-1.35 10.12-1.09 3.66-2.1 6.79-4.37 10.07q-1.66 2.41-3.28 4.84c-3 4.5-6.08 5.57-10.29 7.38q-.48.21-.08.54.46.38 1.26.68-5.76 1.72-11.12 3.42c-1.69.54-2.88.32-4.56-.05q2.36-1.24 5.47-1.07.12 0 .12-.12v-.26q0-.26-.26-.23c-3.25.33-7.4.66-10.49-.31-5.62-1.77-10.97-9.88-12.71-15.17q-1.76-5.36-3.01-10.87-.99-4.36-2.13-6.23c-2.35-3.87-7.42-6.89-11.8-5.41-4.59 1.54-9.35 2.57-13.67 4.4-13.61 5.79-27.31 11.35-40.49 18.07q-1.36.69-7.45 3.28c-4.13 1.75-7.86 4.3-11.84 6.03-8.92 3.89-16.89 9.13-25.62 12.91-4.08 1.76-7.58 3.34-11.29 6.03q-5.73 4.16-11.45 8.33c-4.99 3.64-8.54 8.36-12.71 12.68-4.76 4.93-8.58 10.91-13.59 15.28-3.54 3.08-6.44 7.03-9.69 10.45q-3.54 3.71-5.8 7.25-2.57 4.03-5.03 8.05l-1.23 3.21q-.33.85-1.23.67-33.63-6.6-65.27-13.1-21.04-4.32-31.1-5.57l-26.43-4.68-.3-5.68a1.44 1.44 0 0 1 .78-1.37c4.03-2.09 8.34-3.71 12.16-5.74 5.21-2.76 10.17-4.9 15.78-7.91 3.61-1.93 7.39-3.28 11-5.18 1.47-.77 3.08-1.18 4.42-1.98 2.84-1.68 5.55-3.57 8.52-4.91q5.29-2.41 10.58-4.83 1.76-.81 6.62-3.77c3.79-2.31 8.43-2.82 11.36-6.24a1.57 1.56 13.1 0 1 .83-.51q3.53-.87 4.4-1.32 15.39-7.93 20.67-10.38c.87-.4 1.3-1.27 2.08-1.68 3.72-1.96 7.62-3.33 11.64-5.89 3.79-2.41 7.19-3.91 12.08-6.82 3.92-2.33 9.63-5.09 14.17-8.28a1.14 1.11-63.1 0 1 .62-.21q2.13-.04 3.4-1.74.32-.43.81-.64 3.15-1.31 6.23-2.73c2.53-1.16 5.24-3.42 8.36-4.51 1.74-.61 2.82-1.47 4.29-2.41 1.39-.9 3.59-1.53 5.16-3.01a1.48 1.44-70.4 0 1 .77-.38c2.91-.5 4.93-2.43 7.08-3.39q5.86-2.59 11.64-5.38a2.02 1.91 3.2 0 0 .72-.61q.59-.82 1.02-.94c4.64-1.25 9.41-4.54 12.36-5.96q6.93-3.34 13.87-6.65c2.45-1.17 4.43-2.85 6.85-3.92 2.49-1.12 4.55-2.69 7.1-3.77q.9-.39 1.64-.89c3.74-2.52 8.28-3.38 12.29-6.18q.81-.56 3.53-1.92c1.75-.87 2.87-2.4 4.43-3.29q4.07-2.32 7.93-4.95c.83-.56 1.96-.64 2.94-1.35 3.23-2.31 7.36-3.44 10.32-4.99 4.5-2.36 8.47-4.54 13.66-5.37q7.56-1.22 15.1-2.54c2.17-.39 5.48.02 7.87 1.09q7.66 3.41 15.48 6.42 1.85.71 4.24 2.49 2.19 1.63 4.45 2.38ZM61.41 268.94q-.34-.09-.71-.04a.48.47-17.1 0 0-.37.69q.5.96 1.93.67.68-.14.85-.65a.36.36 0 0 0-.34-.48h-.52q-.07 0-.84-.19Z"/><path fill="#bdb5a9" d="M250.6 133.46q-.85 1.82-2.74 1.44 1.28-1.03 2.74-1.44Z"/><path fill="#7c7a78" d="M366.22 133.26q5.32 9.52 6.61 14.96.74 3.08 1.19 13.01-1.11-.87-.98-2.24.27-2.86-.5-5.04-.16-.47-.12-.97c.3-3.11-1.28-5.31-1.97-7.65-.83-2.83-1.33-4.36-2.98-7.52q-1.12-2.16-1.25-4.55Z"/><path fill="#bdb5a9" d="M246.72 135.35q-.09.13-.11.34-.02.31-.3.46-13.39 7.57-27.54 13.56l27.95-14.36Z"/><path fill="#d1cbbd" d="M631.7 155.91q-.91.95-1.66 1.86-.76.93-1.08 2.19c-1.13 4.43-1.69 8.72-3.08 13.24-1.16 3.77-1.7 8.28-2.47 11.51q-.71 2.95-1.36 5.92-.09.38-.47 4.33-.26 2.66-1.84 4.13 2.13-10.85 4.32-21.58c.84-4.11 2.59-9.86 3.31-14.98.29-2.11 1.62-6.63 4.33-6.62Z"/><path fill="#b1ae9f" d="M631.7 155.91q2.75-.79 4.59.67-.14.28-.81.48-.66.2-.07.54 2.36 1.36 2.2 4.15a1.71 1.63-60.3 0 0 .24.97q1.05 1.74.74 3.76a1.1 1.06-55.1 0 0 .1.64c1.33 2.67 1.18 4.07 1.68 6.88.65 3.64.58 7.36 1.02 11.04q.36 2.95.38 7.47.03 6.39 1.94 12.51c.5 1.62.29 3.28.76 4.98.81 2.94.66 4.75.64 7.51q0 .1.08.18.09.1.21.19.24.19.27.5c.27 3.22 1.05 5.91 1.16 9.37.1 3.09 1.38 5.66 1.23 9.01q-.33 7.22.69 14.4.44 3.43-.68 7.34c-.54 1.92-1.59 3.02-2.73 4.68-1.14 1.66-2.55 2-4.42 2.19-3.47.37-5.17-3.42-5.18-6.37q-.03-12.16.1-24.32.01-.51-.34-.88l-2.33-2.48q-.34-.37-.85-.31l-3.07.34q.41-1.49 2.5-1.47.46 0 .85.26l2.87 1.92q.29.2.34-.15l.11-.67a.52.52 0 0 0-.24-.52c-6.76-4.18-10.8.73-11.08 7.19q-.02.5-.31.91-1.08 1.53-1.13 3.44-.2 7.75-2.22 15.23-.62 2.27-.92 10.75-.02.53-.39 1.05-.27.41-.36.89-1.24 6.8-2.22 13.64-.06.44-.59 2.29c-.51 1.82-.26 3.62-1.07 5.47-1.55 3.57-1.78 8.07-2.16 11.91q-.46 4.64-1.33 8.94c-1.86 9.18-2.91 18.59-4.57 27.83-.67 3.79-.03 7.54-1.01 11.23q-.1.35-.34.51-.36.24-.43.66c-.49 2.95-2.01 5.53-2.46 8.22-1.23 7.26-2.31 14.48-2.94 22.25-.21 2.62-1.64 4.44-1.84 6.89q-.45 5.39-1.24 10.69-.21 1.4.99 1.91c-1.43 9.07-2.8 18.04-4.69 27.13q-4.24 20.37-8.49 40.75-.37 1.78-1.15 4.61c-1.12 4.08-1.23 8.41-1.63 12.59-.23 2.43-.85 4.67-1.43 6.99a1.71 1.67-12.4 0 1-.6.92l-3.63 2.81a1.48 1.44 25.6 0 1-.89.3l-8.82.03q-.5 0-.93-.26c-1.62-1.01-2.9-2.05-4.89-2.21-2.42-.19-4.3-.14-6.83-.82q-3.54-.95-7.29-.3a1.56 1.56 0 0 0-.8.4l-2.98 2.81q-.77-1.16-.95-.88 3.1-3.92 8.15-4.5c1.81-.21 3.28.67 4.95 1.29 3.39 1.26 5.89-.49 9.34 1.46q2.33 1.32 4.89 1.15a1.16 1.16 0 0 0 .82-1.89c-1.59-1.94-2.13-3.67-2.2-6.34q-.85-30.23-.59-40.41.4-14.88.12-29.75c-.03-1.33.32-2.49.31-3.67q-.14-14.79-.51-29.58-.06-2.17.92-5.96a1.59 1.57 76.6 0 1 .48-.79q2.96-2.54 4.22-5.23 1.43-3.03-.88-.61c-2.51 2.63-6.61 3.84-10.38 2.91-1.66-.41-3.4-.29-4.88-.7q-1.95-.54-3.89-1.09c-3.24-.91-6.77-.77-10.13-1.35q-3.14-.55-6.15-.65-11.65-.42-24.38-4.95c-1.89-.67-4.26-.08-6.52-1.41-1.67-.97-2.71-1.84-4.62-2.43q-14.12-4.34-28.62-7.23-3.04-.61-6.06-1.27-9.01-1.98-18.01-4.07l.38-.01a.36.36 0 0 0 .06-.71q-8.51-1.9-17.14-3.96-.99-.24-.78-.74l44.76 9.78q4.4 1.45 8.93 2.41 3.77.79 7.58 2.01c4.75 1.52 9.95 2.48 14.58 5.49 1.8 1.17 3.99.55 5.96 1.26q6.48 2.32 13.22 3.77c1.96.42 4.03.09 6.12.43 5.07.83 10.16 1.24 15.28 1.64q2.47.19 6.11 1.02 3.16.71 6.17.92 2.68-.8 6.18-.03-.18.8 1.74.05c6.85-2.65 6.19-9.16 7.03-15.12q.58-4.13 1.48-7.4 2.67-9.71 6.72-18.4 2.77-4.01 4.15-9.32 2.48-9.56 3.82-15.22c.68-2.86 1.99-5.83 2.68-8.97q1.18-5.31 1.64-6.79c2.87-9.32 5.66-18.49 7.69-28.05q.13-.61-.62-1.45l17.56-63.94q1.58-1.47 1.84-4.13.38-3.95.47-4.33.65-2.97 1.36-5.92c.77-3.23 1.31-7.74 2.47-11.51 1.39-4.52 1.95-8.81 3.08-13.24q.32-1.26 1.08-2.19.75-.91 1.66-1.86Z"/><path fill="#7c7a78" d="M636.29 156.58c1.36.6 2.22 1.18 2.59 2.75q1.05 4.39 2.15 8.77c1.69 6.75 1.85 13.54 2.46 20.41 1.35 15.3 4.81 30.28 5.14 45.62q.18 8.42.12 17.03-1.02-7.18-.69-14.4c.15-3.35-1.13-5.92-1.23-9.01-.11-3.46-.89-6.15-1.16-9.37q-.03-.31-.27-.5-.12-.09-.21-.19-.08-.08-.08-.18c.02-2.76.17-4.57-.64-7.51-.47-1.7-.26-3.36-.76-4.98q-1.91-6.12-1.94-12.51-.02-4.52-.38-7.47c-.44-3.68-.37-7.4-1.02-11.04-.5-2.81-.35-4.21-1.68-6.88a1.1 1.06-55.1 0 1-.1-.64q.31-2.02-.74-3.76a1.71 1.63-60.3 0 1-.24-.97q.16-2.79-2.2-4.15-.59-.34.07-.54.67-.2.81-.48Zm-295.5 54.21-6.78-.58q-.5-.05-.86-.4l-7.72-7.61q.65-1.85-1.79-3.55l-2.27-4.11q.77.05.53-.8-2.16-7.61-3.33-12.34c-1.15-4.7-5.18-9.7-10.54-9.23q-3.72.33-5.98 1.83c-2.22.87-4.67 1.52-6.79 2.36q-23.97 9.49-47.1 20.88c-2.63 1.29-5.47 1.79-7.97 3.11q-15.62 8.22-31.11 16.15-2.77.19-5.49 1.57c-.66.33-1.3 1.15-2.25 1.3q-.43.07-.8.32-.56.37-1.45.88-3.68 2.11-8.26 5.71-1.84 1.44-3.72 2.83-2.01 1.48-3.56 3-8.49 8.3-16.47 17.09-1.25 1.37-2.57 3.25c-2.77 3.94-6.65 7.04-9.88 10.64-3.47 3.86-7.57 7.6-10.52 11.4q-1.56 2.01-2.13 4.82c-1.36 2.09-5.07 5.9-3.3 8.46q.22.53-.74.56-1.13-.05-1.3-1.08c-.17-1.03.74-2.08.71-3.37q2.46-4.02 5.03-8.05 2.26-3.54 5.8-7.25c3.25-3.42 6.15-7.37 9.69-10.45 5.01-4.37 8.83-10.35 13.59-15.28 4.17-4.32 7.72-9.04 12.71-12.68q5.72-4.17 11.45-8.33c3.71-2.69 7.21-4.27 11.29-6.03 8.73-3.78 16.7-9.02 25.62-12.91 3.98-1.73 7.71-4.28 11.84-6.03q6.09-2.59 7.45-3.28c13.18-6.72 26.88-12.28 40.49-18.07 4.32-1.83 9.08-2.86 13.67-4.4 4.38-1.48 9.45 1.54 11.8 5.41q1.14 1.87 2.13 6.23 1.25 5.51 3.01 10.87c1.74 5.29 7.09 13.4 12.71 15.17 3.09.97 7.24.64 10.49.31q.26-.03.26.23v.26q0 .12-.12.12-3.11-.17-5.47 1.07Z"/><path fill="#d1cbbd" d="M321.37 194.54q-2.59-6.87-4.83-13.98c-1.17-3.72-2.5-6-5.93-7.46-2.77-1.18-5.69.17-8.56.9q2.26-1.5 5.98-1.83c5.36-.47 9.39 4.53 10.54 9.23q1.17 4.73 3.33 12.34.24.85-.53.8Z"/><path fill="#7c7a78" d="M374.58 173.79c.23 3.97.81 7.51-.54 11.39-2.11 6.08-4.91 13.29-10.03 17.52q-3.65 3.01-7.54 4.72-.8-.3-1.26-.68-.4-.33.08-.54c4.21-1.81 7.29-2.88 10.29-7.38q1.62-2.43 3.28-4.84c2.27-3.28 3.28-6.41 4.37-10.07.94-3.19.7-6.66 1.35-10.12Z"/><path fill="#bdb5a9" d="M153.94 182.74q-.21.68-.8 1.35-.31.34-.72.55l-141.9 72.69q-.22-1.16.35-1.46 37.68-19.35 143.07-73.13Zm169.7 15.91q2.44 1.7 1.79 3.55l-1.79-3.55Z"/><path fill="#d1cbbd" d="M209.08 216.5c-3.81 2.18-7.92 3.27-11.31 5.84-5.34 4.04-11 7.88-15.64 12.39q-8.45 8.22-15.88 17.37-3.73 4.6-7.65 8.27c-7.58 7.11-11.56 12.1-16.62 18.94q.57-2.81 2.13-4.82c2.95-3.8 7.05-7.54 10.52-11.4 3.23-3.6 7.11-6.7 9.88-10.64q1.32-1.88 2.57-3.25 7.98-8.79 16.47-17.09 1.55-1.52 3.56-3 1.88-1.39 3.72-2.83 4.58-3.6 8.26-5.71.89-.51 1.45-.88.37-.25.8-.32c.95-.15 1.59-.97 2.25-1.3q2.72-1.38 5.49-1.57Z"/><path fill="#7c7a78" d="M629.25 231.35q-2.13 1.48-2.67 4.4-7.73 41.69-16.92 99.64c-3.56 22.45-7.8 44.8-11.6 67.23q-1.2-.51-.99-1.91.79-5.3 1.24-10.69c.2-2.45 1.63-4.27 1.84-6.89.63-7.77 1.71-14.99 2.94-22.25.45-2.69 1.97-5.27 2.46-8.22q.07-.42.43-.66.24-.16.34-.51c.98-3.69.34-7.44 1.01-11.23 1.66-9.24 2.71-18.65 4.57-27.83q.87-4.3 1.33-8.94c.38-3.84.61-8.34 2.16-11.91.81-1.85.56-3.65 1.07-5.47q.53-1.85.59-2.29.98-6.84 2.22-13.64.09-.48.36-.89.37-.52.39-1.05.3-8.48.92-10.75 2.02-7.48 2.22-15.23.05-1.91 1.13-3.44.29-.41.31-.91c.28-6.46 4.32-11.37 11.08-7.19a.52.52 0 0 1 .24.52l-.11.67q-.05.35-.34.15l-2.87-1.92q-.39-.26-.85-.26-2.09-.02-2.5 1.47Zm-27.07 31.68q.75.84.62 1.45c-2.03 9.56-4.82 18.73-7.69 28.05q-.46 1.48-1.64 6.79c-.69 3.14-2 6.11-2.68 8.97q-1.34 5.66-3.82 15.22-1.38 5.31-4.15 9.32c2.44-8.3 4.58-16.5 7.04-24.59q1.18-3.84 1.59-7.78l10.73-37.43Z"/><path fill="#d1cbbd" d="m12.09 264.41 26.43 4.68q7.22 2.04 14.46 3.4 11.92 2.22 12.01 2.24 51.62 10.65 103.46 20.21c1.2.22 3.06.85 4.59.65q1.05-.14.01-.34l-35.11-6.92q.96-.03.74-.56l77.92 14.73-9.03-.89q-.8-.08-.15.34c1.73 1.09 6.95 1.79 9.26 2.05 2.06.22 3.77 1.14 5.95 1.08q1.25-.04 2.24.13 19.61 3.41 39.11 7.38c3.92.8 9.42 1.68 14.07 2.76q5.7 1.32 9.94 1.97c4.82.73 10.09 1.31 14.73 2.8 4.15 1.33 7.88 2.04 11.92 2.82 4.36.84 9.46 2.69 14.43 3.36 10.88 1.48 21.43 4.96 32.28 6.17a.12.12 0 0 0 .05-.23q-14.78-4.6-30.28-6.62-5.02-.66-9.6-2.03-6.82-2.05-13.88-3.81 7.19 1.17 14.24 2.56c4.95.98 9.84 1.17 14.69 2.21q46.18 9.93 92.47 20.02-4.71-.12-9.54-1.26-9.17-2.14-18.44-3.71a.57.57 0 0 0-.6.3l-.21.39q-.18.34.19.41l48 9.72q9 2.09 18.01 4.07 3.02.66 6.06 1.27 14.5 2.89 28.62 7.23c1.91.59 2.95 1.46 4.62 2.43 2.26 1.33 4.63.74 6.52 1.41q12.73 4.53 24.38 4.95 3.01.1 6.15.65c3.36.58 6.89.44 10.13 1.35q1.94.55 3.89 1.09c1.48.41 3.22.29 4.88.7 3.77.93 7.87-.28 10.38-2.91q2.31-2.42.88.61-1.26 2.69-4.22 5.23a1.59 1.57 76.6 0 0-.48.79q-.98 3.79-.92 5.96.37 14.79.51 29.58c.01 1.18-.34 2.34-.31 3.67q.28 14.87-.12 29.75-.26 10.18.59 40.41c.07 2.67.61 4.4 2.2 6.34a1.16 1.16 0 0 1-.82 1.89q-2.56.17-4.89-1.15c-3.45-1.95-5.95-.2-9.34-1.46-1.67-.62-3.14-1.5-4.95-1.29q-5.05.58-8.15 4.5l-9.5 8.85q-.36.35-.86.28c-4.76-.66-9.86-2.22-13.92-3.1-10.8-2.33-21.64-5.52-34.45-7.98-10.56-2.03-21.93-5.33-33.08-7.41q-2.68-.5-8.45-2.55c-2.87-1.01-6.93-1.81-10.29-3.08-6.41-2.41-13.87-3.42-20.56-5.01q-2.96-.7-5.91-1.47-7.71-2.01-15.52-3.56-5.41-1.07-14.42-3.25c-11.37-2.75-22.71-3.5-32.26-12.07q-3.82-3.44-6.24-5.12-3.72-2.6-7.3-5.38c-6.26-4.89-8.65-11.33-12.84-17.59q-1.1-1.64-2.56-4.26c-2.14-3.87-5.29-7.15-7.95-10.68-4.78-6.35-10.65-10.96-17.28-15.06-6.15-3.8-19.01-3.73-24.19 1.41-1.64 1.63-3.6 2.66-5.06 4.33q-4.39 5.05-8.8 10.07c-4.92 5.61-9.79 9.23-16.01 12.55-2.92 1.55-5.89 2.1-9.17 2.95-4.59 1.18-9.5 1.61-14.19 2.5-1.75.33-3.75-.61-5.33-.74q-3.31-.26-6.61-.58c-4.4-.43-9.08-2.12-13.85-2.56q-5-.46-7.86-1.01c-9.09-1.76-18.25-3.02-27.3-4.81-32.2-6.38-65.32-12.4-96.32-20.93-1.52-.41-2.05-1.55-2.96-2.69-5.72-7.2-9.98-15.57-18.9-19.41q-6.03-2.6-12.41-3.14a1.51 1.5-88.1 0 1-1.38-1.48q-.14-13.2-.43-26.4c-.03-1.77-.83-3.4-.94-4.86q-.27-3.41-.68-6.8c-.8-6.47-.19-13.33-1.88-19.67-.74-2.73-1.8-8.36-1.24-11.06q.33-1.61.07-2.93-1.1-5.52-1.15-9.29-.18-12.87-.33-25.75-.03-2.3.34-4.34Zm52.15 101.88c3.51 9.58 12.38 19 23.04 21.34 15.64 3.42 31.05 6.79 47.06 9.61q29.31 5.16 58.6 10.49c7.11 1.3 12.79 1.75 18.09-2.45 6.44-5.11 6.53-11.84 5.83-19.02q-1.6-16.45-3.46-32.87c-1.86-16.42-13.26-27.9-29.57-30.52a6380.7 6380.7 0 0 1-41.06-6.72q-28.84-4.8-57.24-11.8c-7.94-1.96-16.42-2.21-21.8 5.1q-3.54 4.81-3.3 9.3.97 18.37 1.97 36.75.36 6.75 1.84 10.79Zm446.05 40.95c-4.48-12.38-15.22-19.86-27.73-22.57q-25.69-5.57-104.89-23.2-6.97-1.55-10.19-1.51c-7.74.09-15.61 4.4-17.75 12.09q-.83 2.96-.57 11.49.45 14.75.69 29.51.12 7.4 1.36 11.28c3.89 12.12 15.49 20.59 27.76 23.09q15.79 3.22 24.03 5.29 42 10.54 83.97 21.18c9.32 2.37 19.9.2 24.12-9.02 2.28-4.96 1.91-12.32 1.79-18.13q-.29-13.9-.82-27.8-.29-7.63-1.77-11.7Z"/><path fill="#222476" d="M137.35 283.88c.03 1.29-.88 2.34-.71 3.37q.17 1.03 1.3 1.08l35.11 6.92q1.04.2-.01.34c-1.53.2-3.39-.43-4.59-.65q-51.84-9.56-103.46-20.21-.09-.02-12.01-2.24-7.24-1.36-14.46-3.4 10.06 1.25 31.1 5.57 31.64 6.5 65.27 13.1.9.18 1.23-.67l1.23-3.21Z"/><path fill="#7c7a78" d="M62.25 269.13h.52a.36.36 0 0 1 .34.48q-.17.51-.85.65-1.43.29-1.93-.67a.48.47-17.1 0 1 .37-.69q.37-.05.71.04.77.19.84.19Z"/><path fill="#d1cbbd" d="M591.45 300.46q-.41 3.94-1.59 7.78c-2.46 8.09-4.6 16.29-7.04 24.59q-4.05 8.69-6.72 18.4-.9 3.27-1.48 7.4c-.84 5.96-.18 12.47-7.03 15.12q-1.92.75-1.74-.05 4.06-2.07 6.11-6.17c2.24-4.48.85-9.69 2.56-14.55 2.92-8.3 5.95-16.5 8.49-24.97q4.13-13.71 8.44-27.55Z"/><path fill="#7c7a78" d="m216.6 302.5 91.04 17.28q7.06 1.76 13.88 3.81 4.58 1.37 9.6 2.03 15.5 2.02 30.28 6.62a.12.12 0 0 1-.05.23c-10.85-1.21-21.4-4.69-32.28-6.17-4.97-.67-10.07-2.52-14.43-3.36-4.04-.78-7.77-1.49-11.92-2.82-4.64-1.49-9.91-2.07-14.73-2.8q-4.24-.65-9.94-1.97c-4.65-1.08-10.15-1.96-14.07-2.76q-19.5-3.97-39.11-7.38-.99-.17-2.24-.13c-2.18.06-3.89-.86-5.95-1.08-2.31-.26-7.53-.96-9.26-2.05q-.65-.42.15-.34l9.03.89Z"/><path fill="#222476" d="M87.28 387.63c-10.66-2.34-19.53-11.76-23.04-21.34q-1.48-4.04-1.84-10.79-1-18.38-1.97-36.75-.24-4.49 3.3-9.3c5.38-7.31 13.86-7.06 21.8-5.1q28.4 7 57.24 11.8a6380.7 6380.7 0 0 0 41.06 6.72c16.31 2.62 27.71 14.1 29.57 30.52q1.86 16.42 3.46 32.87c.7 7.18.61 13.91-5.83 19.02-5.3 4.2-10.98 3.75-18.09 2.45q-29.29-5.33-58.6-10.49c-16.01-2.82-31.42-6.19-47.06-9.61Z"/><path fill="#d1cbbd" d="M12.84 317.81q1.69 5.55 2.13 11.43.16 2.05-.59 2.84l-1.54-14.27Z"/><path fill="#7c7a78" d="m429.04 344.57 1.92.43q-.21.5.78.74 8.63 2.06 17.14 3.96a.36.36 0 0 1-.06.71l-.38.01-48-9.72q-.37-.07-.19-.41l.21-.39a.57.57 0 0 1 .6-.3q9.27 1.57 18.44 3.71 4.83 1.14 9.54 1.26Z"/><path fill="#d1cbbd" d="M475.72 354.78q11.9 2.02 23.34 5.28c3.68 1.05 5.83 4.06 9.68 4.51 5.34.63 10.22 2.24 15.42 3.51 8.22 2.01 17 2.29 25.49 2.94q2.45.18 5.05 1.12 2.45.88 4.97 1.59-3.01-.21-6.17-.92-3.64-.83-6.11-1.02c-5.12-.4-10.21-.81-15.28-1.64-2.09-.34-4.16-.01-6.12-.43q-6.74-1.45-13.22-3.77c-1.97-.71-4.16-.09-5.96-1.26-4.63-3.01-9.83-3.97-14.58-5.49q-3.81-1.22-7.58-2.01-4.53-.96-8.93-2.41Z"/><path fill="#96120c" d="M482.56 384.67c12.51 2.71 23.25 10.19 27.73 22.57q1.48 4.07 1.77 11.7.53 13.9.82 27.8c.12 5.81.49 13.17-1.79 18.13-4.22 9.22-14.8 11.39-24.12 9.02Q445 463.25 403 452.71q-8.24-2.07-24.03-5.29c-12.27-2.5-23.87-10.97-27.76-23.09q-1.24-3.88-1.36-11.28-.24-14.76-.69-29.51-.26-8.53.57-11.49c2.14-7.69 10.01-12 17.75-12.09q3.22-.04 10.19 1.51 79.2 17.63 104.89 23.2Z"/><path fill="#d1cbbd" d="m304.35 414.07-6.82-6.73q2.01.7 4.83 3.77 1.9 2.07 1.99 2.96Z"/><path fill="#b1ae9f" d="M120.48 419.09c-21.55-4.19-34.4-6.41-49.32-10.83q5.27.37 10.58 2.02 5.4 1.68 11 2.5c2.65.39 5.15 1.23 7.82 1.73q.47.08.77.45.16.18.38.29.27.14.56.05 2.22-.66 4.28.41.46.24.98.21 2.12-.09 3.91 1.02.42.27.91.19 2.17-.34 4 .83.44.28.96.2 2.1-.34 3.17.93Z"/><path fill="#d1cbbd" d="M307.53 418.65q4.75 3.38 6.11 8.78l-6.11-8.78Zm-113.25 13.51-10.98-1.58q.74-.88 3.47-.54 4.6.57 7.51 2.12Zm13.78 1.74q-3.99.51-7.84-.63 4.72-1.28 7.84.63Z"/></svg>